<mxfile host="app.diagrams.net" modified="2023-03-08T07:45:04.988Z" agent="5.0 (Windows NT 10.0; Win64; x64) AppleWebKit/537.36 (KHTML, like Gecko) Chrome/110.0.0.0 Safari/537.36" etag="4QXfKfFy_9X2h1pNTD2M" version="21.0.2" type="github">
  <diagram name="第 1 页" id="zhSJCforY8B-MtIuW9Q7">
    <mxGraphModel dx="1120" dy="396" grid="0" gridSize="10" guides="1" tooltips="1" connect="1" arrows="1" fold="1" page="1" pageScale="1" pageWidth="1169" pageHeight="1654" math="0" shadow="0">
      <root>
        <mxCell id="0" />
        <mxCell id="1" parent="0" />
        <mxCell id="axphInQ6ILh3uUqZy5pT-3" value="" style="rounded=0;whiteSpace=wrap;html=1;" parent="1" vertex="1">
          <mxGeometry x="212" y="106" width="90" height="23" as="geometry" />
        </mxCell>
        <mxCell id="axphInQ6ILh3uUqZy5pT-4" value="原变量a" style="text;html=1;strokeColor=none;fillColor=none;align=center;verticalAlign=middle;whiteSpace=wrap;rounded=0;" parent="1" vertex="1">
          <mxGeometry x="127" y="102.5" width="60" height="30" as="geometry" />
        </mxCell>
        <mxCell id="axphInQ6ILh3uUqZy5pT-5" value="引用变量b" style="text;html=1;strokeColor=none;fillColor=none;align=center;verticalAlign=middle;whiteSpace=wrap;rounded=0;" parent="1" vertex="1">
          <mxGeometry x="129" y="172" width="58" height="30" as="geometry" />
        </mxCell>
        <mxCell id="axphInQ6ILh3uUqZy5pT-7" value="" style="endArrow=classic;html=1;rounded=0;" parent="1" edge="1">
          <mxGeometry width="50" height="50" relative="1" as="geometry">
            <mxPoint x="198" y="181" as="sourcePoint" />
            <mxPoint x="248" y="131" as="targetPoint" />
          </mxGeometry>
        </mxCell>
        <mxCell id="axphInQ6ILh3uUqZy5pT-8" value="变量a地址" style="rounded=0;whiteSpace=wrap;html=1;" parent="1" vertex="1">
          <mxGeometry x="472.5" y="105" width="85" height="27" as="geometry" />
        </mxCell>
        <mxCell id="axphInQ6ILh3uUqZy5pT-9" value="指针变量:*p" style="text;html=1;strokeColor=none;fillColor=none;align=center;verticalAlign=middle;whiteSpace=wrap;rounded=0;" parent="1" vertex="1">
          <mxGeometry x="375" y="106" width="88" height="23" as="geometry" />
        </mxCell>
        <mxCell id="axphInQ6ILh3uUqZy5pT-10" value="*p = &amp;amp;a;时，指针变量本身有一个地址，内存空间中存放的是指向的变量地址" style="text;html=1;strokeColor=none;fillColor=none;align=center;verticalAlign=middle;whiteSpace=wrap;rounded=0;" parent="1" vertex="1">
          <mxGeometry x="361" y="144" width="321" height="58" as="geometry" />
        </mxCell>
        <mxCell id="axphInQ6ILh3uUqZy5pT-11" value="引用：变量的另一个别名，没有开辟新内存空间" style="text;html=1;strokeColor=#82b366;fillColor=#d5e8d4;align=center;verticalAlign=middle;whiteSpace=wrap;rounded=0;" parent="1" vertex="1">
          <mxGeometry x="123" y="210" width="284" height="34" as="geometry" />
        </mxCell>
        <mxCell id="t9q21rlbk7sv6u75ExxA-17" value="变量名为指向的地址" style="text;html=1;strokeColor=none;fillColor=none;align=center;verticalAlign=middle;whiteSpace=wrap;rounded=0;" parent="1" vertex="1">
          <mxGeometry x="54" y="460" width="122" height="26.5" as="geometry" />
        </mxCell>
        <mxCell id="t9q21rlbk7sv6u75ExxA-31" value="加 * 得到内存中的值" style="text;html=1;strokeColor=none;fillColor=none;align=center;verticalAlign=middle;whiteSpace=wrap;rounded=0;" parent="1" vertex="1">
          <mxGeometry x="16" y="551" width="145" height="37" as="geometry" />
        </mxCell>
        <mxCell id="t9q21rlbk7sv6u75ExxA-43" value="" style="shape=table;startSize=0;container=1;collapsible=0;childLayout=tableLayout;" parent="1" vertex="1">
          <mxGeometry x="356" y="457.5" width="139" height="68" as="geometry" />
        </mxCell>
        <mxCell id="t9q21rlbk7sv6u75ExxA-44" value="" style="shape=tableRow;horizontal=0;startSize=0;swimlaneHead=0;swimlaneBody=0;strokeColor=inherit;top=0;left=0;bottom=0;right=0;collapsible=0;dropTarget=0;fillColor=none;points=[[0,0.5],[1,0.5]];portConstraint=eastwest;" parent="t9q21rlbk7sv6u75ExxA-43" vertex="1">
          <mxGeometry width="139" height="36" as="geometry" />
        </mxCell>
        <mxCell id="t9q21rlbk7sv6u75ExxA-45" value="值 = p2&lt;br&gt;内存：存放一级指针地址" style="shape=partialRectangle;html=1;whiteSpace=wrap;connectable=0;strokeColor=inherit;overflow=hidden;fillColor=none;top=0;left=0;bottom=0;right=0;pointerEvents=1;" parent="t9q21rlbk7sv6u75ExxA-44" vertex="1">
          <mxGeometry width="139" height="36" as="geometry">
            <mxRectangle width="139" height="36" as="alternateBounds" />
          </mxGeometry>
        </mxCell>
        <mxCell id="t9q21rlbk7sv6u75ExxA-46" value="" style="shape=tableRow;horizontal=0;startSize=0;swimlaneHead=0;swimlaneBody=0;strokeColor=inherit;top=0;left=0;bottom=0;right=0;collapsible=0;dropTarget=0;fillColor=none;points=[[0,0.5],[1,0.5]];portConstraint=eastwest;" parent="t9q21rlbk7sv6u75ExxA-43" vertex="1">
          <mxGeometry y="36" width="139" height="32" as="geometry" />
        </mxCell>
        <mxCell id="t9q21rlbk7sv6u75ExxA-47" value="本身地址：&amp;amp;p2" style="shape=partialRectangle;html=1;whiteSpace=wrap;connectable=0;strokeColor=inherit;overflow=hidden;fillColor=none;top=0;left=0;bottom=0;right=0;pointerEvents=1;" parent="t9q21rlbk7sv6u75ExxA-46" vertex="1">
          <mxGeometry width="139" height="32" as="geometry">
            <mxRectangle width="139" height="32" as="alternateBounds" />
          </mxGeometry>
        </mxCell>
        <mxCell id="t9q21rlbk7sv6u75ExxA-48" value="" style="shape=table;startSize=0;container=1;collapsible=0;childLayout=tableLayout;" parent="1" vertex="1">
          <mxGeometry x="533" y="457.5" width="139" height="67.5" as="geometry" />
        </mxCell>
        <mxCell id="t9q21rlbk7sv6u75ExxA-49" value="" style="shape=tableRow;horizontal=0;startSize=0;swimlaneHead=0;swimlaneBody=0;strokeColor=inherit;top=0;left=0;bottom=0;right=0;collapsible=0;dropTarget=0;fillColor=none;points=[[0,0.5],[1,0.5]];portConstraint=eastwest;" parent="t9q21rlbk7sv6u75ExxA-48" vertex="1">
          <mxGeometry width="139" height="36" as="geometry" />
        </mxCell>
        <mxCell id="t9q21rlbk7sv6u75ExxA-50" value="值 = p1&lt;br&gt;内存：存放 &amp;amp;i" style="shape=partialRectangle;html=1;whiteSpace=wrap;connectable=0;strokeColor=inherit;overflow=hidden;fillColor=none;top=0;left=0;bottom=0;right=0;pointerEvents=1;" parent="t9q21rlbk7sv6u75ExxA-49" vertex="1">
          <mxGeometry width="139" height="36" as="geometry">
            <mxRectangle width="139" height="36" as="alternateBounds" />
          </mxGeometry>
        </mxCell>
        <mxCell id="t9q21rlbk7sv6u75ExxA-51" value="" style="shape=tableRow;horizontal=0;startSize=0;swimlaneHead=0;swimlaneBody=0;strokeColor=inherit;top=0;left=0;bottom=0;right=0;collapsible=0;dropTarget=0;fillColor=none;points=[[0,0.5],[1,0.5]];portConstraint=eastwest;" parent="t9q21rlbk7sv6u75ExxA-48" vertex="1">
          <mxGeometry y="36" width="139" height="32" as="geometry" />
        </mxCell>
        <mxCell id="t9q21rlbk7sv6u75ExxA-52" value="本身地址：&amp;amp;p1" style="shape=partialRectangle;html=1;whiteSpace=wrap;connectable=0;strokeColor=inherit;overflow=hidden;fillColor=none;top=0;left=0;bottom=0;right=0;pointerEvents=1;" parent="t9q21rlbk7sv6u75ExxA-51" vertex="1">
          <mxGeometry width="139" height="32" as="geometry">
            <mxRectangle width="139" height="32" as="alternateBounds" />
          </mxGeometry>
        </mxCell>
        <mxCell id="t9q21rlbk7sv6u75ExxA-53" value="" style="endArrow=classic;html=1;rounded=0;entryX=0;entryY=0.5;entryDx=0;entryDy=0;exitX=1;exitY=0.5;exitDx=0;exitDy=0;" parent="1" source="t9q21rlbk7sv6u75ExxA-44" target="t9q21rlbk7sv6u75ExxA-51" edge="1">
          <mxGeometry width="50" height="50" relative="1" as="geometry">
            <mxPoint x="479" y="471.5" as="sourcePoint" />
            <mxPoint x="529" y="421.5" as="targetPoint" />
          </mxGeometry>
        </mxCell>
        <mxCell id="t9q21rlbk7sv6u75ExxA-54" value="" style="shape=table;startSize=0;container=1;collapsible=0;childLayout=tableLayout;" parent="1" vertex="1">
          <mxGeometry x="178" y="457.5" width="139" height="68.25" as="geometry" />
        </mxCell>
        <mxCell id="t9q21rlbk7sv6u75ExxA-55" value="" style="shape=tableRow;horizontal=0;startSize=0;swimlaneHead=0;swimlaneBody=0;strokeColor=inherit;top=0;left=0;bottom=0;right=0;collapsible=0;dropTarget=0;fillColor=none;points=[[0,0.5],[1,0.5]];portConstraint=eastwest;" parent="t9q21rlbk7sv6u75ExxA-54" vertex="1">
          <mxGeometry width="139" height="37" as="geometry" />
        </mxCell>
        <mxCell id="t9q21rlbk7sv6u75ExxA-56" value="值 = p3&lt;br&gt;内存：存放二级指针地址" style="shape=partialRectangle;html=1;whiteSpace=wrap;connectable=0;strokeColor=inherit;overflow=hidden;fillColor=none;top=0;left=0;bottom=0;right=0;pointerEvents=1;" parent="t9q21rlbk7sv6u75ExxA-55" vertex="1">
          <mxGeometry width="139" height="37" as="geometry">
            <mxRectangle width="139" height="37" as="alternateBounds" />
          </mxGeometry>
        </mxCell>
        <mxCell id="t9q21rlbk7sv6u75ExxA-57" value="" style="shape=tableRow;horizontal=0;startSize=0;swimlaneHead=0;swimlaneBody=0;strokeColor=inherit;top=0;left=0;bottom=0;right=0;collapsible=0;dropTarget=0;fillColor=none;points=[[0,0.5],[1,0.5]];portConstraint=eastwest;" parent="t9q21rlbk7sv6u75ExxA-54" vertex="1">
          <mxGeometry y="37" width="139" height="31" as="geometry" />
        </mxCell>
        <mxCell id="t9q21rlbk7sv6u75ExxA-58" value="本身地址：&amp;amp;p3" style="shape=partialRectangle;html=1;whiteSpace=wrap;connectable=0;strokeColor=inherit;overflow=hidden;fillColor=none;top=0;left=0;bottom=0;right=0;pointerEvents=1;" parent="t9q21rlbk7sv6u75ExxA-57" vertex="1">
          <mxGeometry width="139" height="31" as="geometry">
            <mxRectangle width="139" height="31" as="alternateBounds" />
          </mxGeometry>
        </mxCell>
        <mxCell id="t9q21rlbk7sv6u75ExxA-60" value="" style="endArrow=classic;html=1;rounded=0;exitX=1;exitY=0.5;exitDx=0;exitDy=0;entryX=0;entryY=0.5;entryDx=0;entryDy=0;" parent="1" source="t9q21rlbk7sv6u75ExxA-55" target="t9q21rlbk7sv6u75ExxA-46" edge="1">
          <mxGeometry width="50" height="50" relative="1" as="geometry">
            <mxPoint x="485" y="571.5" as="sourcePoint" />
            <mxPoint x="535" y="521.5" as="targetPoint" />
          </mxGeometry>
        </mxCell>
        <mxCell id="t9q21rlbk7sv6u75ExxA-61" value="一级指针:int *p1" style="text;html=1;strokeColor=none;fillColor=none;align=center;verticalAlign=middle;whiteSpace=wrap;rounded=0;" parent="1" vertex="1">
          <mxGeometry x="547" y="417.5" width="109" height="18" as="geometry" />
        </mxCell>
        <mxCell id="t9q21rlbk7sv6u75ExxA-62" value="二级指针:int **p2" style="text;html=1;strokeColor=none;fillColor=none;align=center;verticalAlign=middle;whiteSpace=wrap;rounded=0;" parent="1" vertex="1">
          <mxGeometry x="370" y="416" width="111" height="21" as="geometry" />
        </mxCell>
        <mxCell id="t9q21rlbk7sv6u75ExxA-63" value="三级指针：int ***p3" style="text;html=1;strokeColor=none;fillColor=none;align=center;verticalAlign=middle;whiteSpace=wrap;rounded=0;" parent="1" vertex="1">
          <mxGeometry x="190" y="418" width="115" height="17" as="geometry" />
        </mxCell>
        <mxCell id="t9q21rlbk7sv6u75ExxA-64" value="" style="shape=table;startSize=0;container=1;collapsible=0;childLayout=tableLayout;" parent="1" vertex="1">
          <mxGeometry x="712" y="458.25" width="139" height="64.5" as="geometry" />
        </mxCell>
        <mxCell id="t9q21rlbk7sv6u75ExxA-65" value="" style="shape=tableRow;horizontal=0;startSize=0;swimlaneHead=0;swimlaneBody=0;strokeColor=inherit;top=0;left=0;bottom=0;right=0;collapsible=0;dropTarget=0;fillColor=none;points=[[0,0.5],[1,0.5]];portConstraint=eastwest;" parent="t9q21rlbk7sv6u75ExxA-64" vertex="1">
          <mxGeometry width="139" height="33" as="geometry" />
        </mxCell>
        <mxCell id="t9q21rlbk7sv6u75ExxA-66" value="i的值&lt;br&gt;内存：存放 i的值" style="shape=partialRectangle;html=1;whiteSpace=wrap;connectable=0;strokeColor=inherit;overflow=hidden;fillColor=none;top=0;left=0;bottom=0;right=0;pointerEvents=1;" parent="t9q21rlbk7sv6u75ExxA-65" vertex="1">
          <mxGeometry width="139" height="33" as="geometry">
            <mxRectangle width="139" height="33" as="alternateBounds" />
          </mxGeometry>
        </mxCell>
        <mxCell id="t9q21rlbk7sv6u75ExxA-67" value="" style="shape=tableRow;horizontal=0;startSize=0;swimlaneHead=0;swimlaneBody=0;strokeColor=inherit;top=0;left=0;bottom=0;right=0;collapsible=0;dropTarget=0;fillColor=none;points=[[0,0.5],[1,0.5]];portConstraint=eastwest;" parent="t9q21rlbk7sv6u75ExxA-64" vertex="1">
          <mxGeometry y="33" width="139" height="32" as="geometry" />
        </mxCell>
        <mxCell id="t9q21rlbk7sv6u75ExxA-68" value="本身地址：&amp;amp;i" style="shape=partialRectangle;html=1;whiteSpace=wrap;connectable=0;strokeColor=inherit;overflow=hidden;fillColor=none;top=0;left=0;bottom=0;right=0;pointerEvents=1;" parent="t9q21rlbk7sv6u75ExxA-67" vertex="1">
          <mxGeometry width="139" height="32" as="geometry">
            <mxRectangle width="139" height="32" as="alternateBounds" />
          </mxGeometry>
        </mxCell>
        <mxCell id="t9q21rlbk7sv6u75ExxA-69" value="" style="endArrow=classic;html=1;rounded=0;entryX=0;entryY=0.5;entryDx=0;entryDy=0;exitX=1;exitY=0.5;exitDx=0;exitDy=0;" parent="1" source="t9q21rlbk7sv6u75ExxA-49" target="t9q21rlbk7sv6u75ExxA-67" edge="1">
          <mxGeometry width="50" height="50" relative="1" as="geometry">
            <mxPoint x="653" y="613" as="sourcePoint" />
            <mxPoint x="703" y="563" as="targetPoint" />
          </mxGeometry>
        </mxCell>
        <mxCell id="t9q21rlbk7sv6u75ExxA-70" value="变量 i" style="text;html=1;strokeColor=none;fillColor=none;align=center;verticalAlign=middle;whiteSpace=wrap;rounded=0;" parent="1" vertex="1">
          <mxGeometry x="751.5" y="418" width="60" height="23" as="geometry" />
        </mxCell>
        <mxCell id="t9q21rlbk7sv6u75ExxA-75" value="" style="shape=table;startSize=0;container=1;collapsible=0;childLayout=tableLayout;" parent="1" vertex="1">
          <mxGeometry x="533" y="551" width="139" height="32" as="geometry" />
        </mxCell>
        <mxCell id="t9q21rlbk7sv6u75ExxA-76" value="" style="shape=tableRow;horizontal=0;startSize=0;swimlaneHead=0;swimlaneBody=0;strokeColor=inherit;top=0;left=0;bottom=0;right=0;collapsible=0;dropTarget=0;fillColor=none;points=[[0,0.5],[1,0.5]];portConstraint=eastwest;" parent="t9q21rlbk7sv6u75ExxA-75" vertex="1">
          <mxGeometry width="139" height="32" as="geometry" />
        </mxCell>
        <mxCell id="t9q21rlbk7sv6u75ExxA-77" value="*p1：变量i的值" style="shape=partialRectangle;html=1;whiteSpace=wrap;connectable=0;strokeColor=inherit;overflow=hidden;fillColor=none;top=0;left=0;bottom=0;right=0;pointerEvents=1;align=left;" parent="t9q21rlbk7sv6u75ExxA-76" vertex="1">
          <mxGeometry width="139" height="32" as="geometry">
            <mxRectangle width="139" height="32" as="alternateBounds" />
          </mxGeometry>
        </mxCell>
        <mxCell id="t9q21rlbk7sv6u75ExxA-78" value="" style="shape=table;startSize=0;container=1;collapsible=0;childLayout=tableLayout;align=left;" parent="1" vertex="1">
          <mxGeometry x="356" y="551" width="141" height="57" as="geometry" />
        </mxCell>
        <mxCell id="t9q21rlbk7sv6u75ExxA-79" value="" style="shape=tableRow;horizontal=0;startSize=0;swimlaneHead=0;swimlaneBody=0;strokeColor=inherit;top=0;left=0;bottom=0;right=0;collapsible=0;dropTarget=0;fillColor=none;points=[[0,0.5],[1,0.5]];portConstraint=eastwest;" parent="t9q21rlbk7sv6u75ExxA-78" vertex="1">
          <mxGeometry width="141" height="29" as="geometry" />
        </mxCell>
        <mxCell id="t9q21rlbk7sv6u75ExxA-80" value="*p2：一级指针的值 p1" style="shape=partialRectangle;html=1;whiteSpace=wrap;connectable=0;strokeColor=inherit;overflow=hidden;fillColor=none;top=0;left=0;bottom=0;right=0;pointerEvents=1;align=left;" parent="t9q21rlbk7sv6u75ExxA-79" vertex="1">
          <mxGeometry width="141" height="29" as="geometry">
            <mxRectangle width="141" height="29" as="alternateBounds" />
          </mxGeometry>
        </mxCell>
        <mxCell id="t9q21rlbk7sv6u75ExxA-81" value="" style="shape=tableRow;horizontal=0;startSize=0;swimlaneHead=0;swimlaneBody=0;strokeColor=inherit;top=0;left=0;bottom=0;right=0;collapsible=0;dropTarget=0;fillColor=none;points=[[0,0.5],[1,0.5]];portConstraint=eastwest;" parent="t9q21rlbk7sv6u75ExxA-78" vertex="1">
          <mxGeometry y="29" width="141" height="28" as="geometry" />
        </mxCell>
        <mxCell id="t9q21rlbk7sv6u75ExxA-82" value="**p2：原变量的值" style="shape=partialRectangle;html=1;whiteSpace=wrap;connectable=0;strokeColor=inherit;overflow=hidden;fillColor=none;top=0;left=0;bottom=0;right=0;pointerEvents=1;align=left;" parent="t9q21rlbk7sv6u75ExxA-81" vertex="1">
          <mxGeometry width="141" height="28" as="geometry">
            <mxRectangle width="141" height="28" as="alternateBounds" />
          </mxGeometry>
        </mxCell>
        <mxCell id="t9q21rlbk7sv6u75ExxA-83" value="" style="shape=table;startSize=0;container=1;collapsible=0;childLayout=tableLayout;" parent="1" vertex="1">
          <mxGeometry x="178" y="551" width="139" height="110" as="geometry" />
        </mxCell>
        <mxCell id="t9q21rlbk7sv6u75ExxA-84" value="" style="shape=tableRow;horizontal=0;startSize=0;swimlaneHead=0;swimlaneBody=0;strokeColor=inherit;top=0;left=0;bottom=0;right=0;collapsible=0;dropTarget=0;fillColor=none;points=[[0,0.5],[1,0.5]];portConstraint=eastwest;" parent="t9q21rlbk7sv6u75ExxA-83" vertex="1">
          <mxGeometry width="139" height="37" as="geometry" />
        </mxCell>
        <mxCell id="t9q21rlbk7sv6u75ExxA-85" value="*p3：二级指针的值 p2" style="shape=partialRectangle;html=1;whiteSpace=wrap;connectable=0;strokeColor=inherit;overflow=hidden;fillColor=none;top=0;left=0;bottom=0;right=0;pointerEvents=1;align=left;" parent="t9q21rlbk7sv6u75ExxA-84" vertex="1">
          <mxGeometry width="139" height="37" as="geometry">
            <mxRectangle width="139" height="37" as="alternateBounds" />
          </mxGeometry>
        </mxCell>
        <mxCell id="t9q21rlbk7sv6u75ExxA-86" value="" style="shape=tableRow;horizontal=0;startSize=0;swimlaneHead=0;swimlaneBody=0;strokeColor=inherit;top=0;left=0;bottom=0;right=0;collapsible=0;dropTarget=0;fillColor=none;points=[[0,0.5],[1,0.5]];portConstraint=eastwest;" parent="t9q21rlbk7sv6u75ExxA-83" vertex="1">
          <mxGeometry y="37" width="139" height="36" as="geometry" />
        </mxCell>
        <mxCell id="t9q21rlbk7sv6u75ExxA-87" value="**p3：一级指针的值p1" style="shape=partialRectangle;html=1;whiteSpace=wrap;connectable=0;strokeColor=inherit;overflow=hidden;fillColor=none;top=0;left=0;bottom=0;right=0;pointerEvents=1;align=left;" parent="t9q21rlbk7sv6u75ExxA-86" vertex="1">
          <mxGeometry width="139" height="36" as="geometry">
            <mxRectangle width="139" height="36" as="alternateBounds" />
          </mxGeometry>
        </mxCell>
        <mxCell id="t9q21rlbk7sv6u75ExxA-88" value="" style="shape=tableRow;horizontal=0;startSize=0;swimlaneHead=0;swimlaneBody=0;strokeColor=inherit;top=0;left=0;bottom=0;right=0;collapsible=0;dropTarget=0;fillColor=none;points=[[0,0.5],[1,0.5]];portConstraint=eastwest;" parent="t9q21rlbk7sv6u75ExxA-83" vertex="1">
          <mxGeometry y="73" width="139" height="37" as="geometry" />
        </mxCell>
        <mxCell id="t9q21rlbk7sv6u75ExxA-89" value="***p3：原变量的值" style="shape=partialRectangle;html=1;whiteSpace=wrap;connectable=0;strokeColor=inherit;overflow=hidden;fillColor=none;top=0;left=0;bottom=0;right=0;pointerEvents=1;align=left;" parent="t9q21rlbk7sv6u75ExxA-88" vertex="1">
          <mxGeometry width="139" height="37" as="geometry">
            <mxRectangle width="139" height="37" as="alternateBounds" />
          </mxGeometry>
        </mxCell>
        <mxCell id="t9q21rlbk7sv6u75ExxA-90" value="每加一个 * ，降一级" style="text;html=1;strokeColor=none;fillColor=none;align=center;verticalAlign=middle;whiteSpace=wrap;rounded=0;" parent="1" vertex="1">
          <mxGeometry x="35" y="613" width="113" height="21" as="geometry" />
        </mxCell>
      </root>
    </mxGraphModel>
  </diagram>
</mxfile>
